# xmcd CD database file generated by Grip 2.7
# 
# Track frame offsets:
#       150
#       12341
#       53729
#       80614
#       104314
#       144313
#       177403
#       226290
#       275247
# 
# Disc length: 3953 seconds
# 
# Revision: 3
# Processed by: cddbd v1.4b41PL1 Copyright (c) Steve Scherf et al.
# Submitted via: Grip 2.7
# 
DISCID=770f6f09
DTITLE=Grateful Dead - 10-02-77 #3
DYEAR=1900
DGENRE=
TTITLE0=Tuning > Funiculi Funicula
TTITLE1=Playin' in the Band >
TTITLE2=Drums >
TTITLE3=The Wheel >
TTITLE4=Trucking >
TTITLE5=The Other One >
TTITLE6=Wharf Rat >
TTITLE7=Sugar Magnolia > Sunshine Daydream
TTITLE8=Johnny B. Goode
EXTD=
EXTT0=
EXTT1=
EXTT2=
EXTT3=
EXTT4=
EXTT5=
EXTT6=
EXTT7=
EXTT8=
PLAYORDER=
